<svg xmlns="http://www.w3.org/2000/svg" xmlns:xlink="http://www.w3.org/1999/xlink" width="500" zoomAndPan="magnify" viewBox="0 0 375 374.999991" height="500" preserveAspectRatio="xMidYMid meet" version="1.0"><defs><g/><clipPath id="ded36054be"><path d="M 124.207031 192.046875 L 221.207031 192.046875 L 221.207031 268.625 L 124.207031 268.625 Z M 124.207031 192.046875 " clip-rule="nonzero"/></clipPath><clipPath id="c294ccc18c"><path d="M 75.550781 44.375 L 299.4375 44.375 L 299.4375 268.367188 L 75.550781 268.367188 Z M 75.550781 44.375 " clip-rule="nonzero"/></clipPath></defs><rect x="-37.5" width="450" fill="#ffffff" y="-37.499999" height="449.999989" fill-opacity="1"/><rect x="-37.5" width="450" fill="#ffffff" y="-37.499999" height="449.999989" fill-opacity="1"/><g clip-path="url(#ded36054be)"><path fill="#e6e7e8" d="M 146.542969 196.066406 C 164.121094 188.390625 183.84375 193.515625 202.753906 197.21875 C 194.367188 209.976562 221.105469 263.839844 221.121094 263.871094 C 210.503906 267.199219 199.207031 268.996094 187.492188 268.996094 C 164.558594 268.996094 143.226562 262.121094 125.453125 250.316406 C 121.210938 229.050781 128.519531 203.933594 146.542969 196.066406 " fill-opacity="1" fill-rule="nonzero"/></g><g clip-path="url(#c294ccc18c)"><path fill="#5ce1e6" d="M 198.046875 208.480469 C 173.488281 203.871094 159.722656 222.265625 162.386719 240.464844 C 155.71875 222.699219 163.132812 191.042969 202.753906 197.21875 C 211.566406 198.589844 220.1875 201.960938 230.792969 202.425781 C 237.097656 202.699219 245.320312 200.589844 250.734375 196.339844 C 255.976562 192.226562 258.417969 186.367188 262.808594 183.136719 C 270.988281 178.214844 268.941406 173.0625 263.3125 171.5625 C 242.703125 166.066406 241.472656 158.984375 229.230469 153.003906 C 226.644531 132.410156 205.929688 119.824219 195.5 115.496094 C 188.671875 88.417969 160.085938 85.609375 160.085938 85.609375 C 162.292969 92.21875 161.042969 97.304688 163.753906 108.421875 C 147.992188 104.910156 121.078125 111.40625 107.5625 123.253906 C 121.078125 119.3125 134.101562 120.488281 134.101562 120.488281 C 134.101562 120.488281 89.039062 127.507812 80.28125 169.808594 C 88.917969 155.253906 100.429688 149.785156 100.429688 149.785156 C 87.75 163.839844 82.761719 180.789062 80.800781 191.859375 C 77.152344 180.792969 75.179688 168.96875 75.179688 156.683594 C 75.179688 94.65625 125.464844 44.375 187.492188 44.375 C 249.519531 44.375 299.800781 94.65625 299.800781 156.683594 C 299.800781 214.3125 256.402344 261.800781 200.503906 268.246094 C 158.9375 259.605469 167.253906 210.34375 198.046875 208.480469 " fill-opacity="1" fill-rule="nonzero"/></g><path fill="#5ce1e6" d="M 218.699219 152.234375 C 207.148438 154.480469 208.292969 144.21875 202.753906 140.929688 C 213.210938 140.371094 217.773438 147.9375 218.699219 152.234375 " fill-opacity="1" fill-rule="nonzero"/><g fill="#5ce1e6" fill-opacity="1"><g transform="translate(31.256643, 326.418774)"><g><path d="M 18.40625 -12.8125 L 13.84375 -8.328125 L 13.84375 0 L 4.375 0 L 4.375 -45.0625 L 13.84375 -45.0625 L 13.84375 -19.5625 L 27.6875 -32.671875 L 38.984375 -32.671875 L 25.390625 -18.828125 L 40.203125 0 L 28.734375 0 Z M 18.40625 -12.8125 "/></g></g></g><g fill="#5ce1e6" fill-opacity="1"><g transform="translate(71.340313, 326.418774)"><g><path d="M 19.921875 0.484375 C 16.484375 0.484375 13.394531 -0.234375 10.65625 -1.671875 C 7.925781 -3.109375 5.789062 -5.101562 4.25 -7.65625 C 2.707031 -10.207031 1.9375 -13.101562 1.9375 -16.34375 C 1.9375 -19.582031 2.707031 -22.472656 4.25 -25.015625 C 5.789062 -27.566406 7.925781 -29.5625 10.65625 -31 C 13.394531 -32.4375 16.484375 -33.15625 19.921875 -33.15625 C 23.359375 -33.15625 26.429688 -32.4375 29.140625 -31 C 31.859375 -29.5625 33.988281 -27.566406 35.53125 -25.015625 C 37.070312 -22.472656 37.84375 -19.582031 37.84375 -16.34375 C 37.84375 -13.101562 37.070312 -10.207031 35.53125 -7.65625 C 33.988281 -5.101562 31.859375 -3.109375 29.140625 -1.671875 C 26.429688 -0.234375 23.359375 0.484375 19.921875 0.484375 Z M 19.921875 -7.28125 C 22.347656 -7.28125 24.335938 -8.097656 25.890625 -9.734375 C 27.453125 -11.378906 28.234375 -13.582031 28.234375 -16.34375 C 28.234375 -19.09375 27.453125 -21.285156 25.890625 -22.921875 C 24.335938 -24.566406 22.347656 -25.390625 19.921875 -25.390625 C 17.492188 -25.390625 15.488281 -24.566406 13.90625 -22.921875 C 12.332031 -21.285156 11.546875 -19.09375 11.546875 -16.34375 C 11.546875 -13.582031 12.332031 -11.378906 13.90625 -9.734375 C 15.488281 -8.097656 17.492188 -7.28125 19.921875 -7.28125 Z M 13.65625 -37.171875 C 12.445312 -37.171875 11.4375 -37.5625 10.625 -38.34375 C 9.8125 -39.132812 9.40625 -40.140625 9.40625 -41.359375 C 9.40625 -42.578125 9.8125 -43.578125 10.625 -44.359375 C 11.4375 -45.148438 12.445312 -45.546875 13.65625 -45.546875 C 14.875 -45.546875 15.878906 -45.148438 16.671875 -44.359375 C 17.460938 -43.578125 17.859375 -42.578125 17.859375 -41.359375 C 17.859375 -40.140625 17.460938 -39.132812 16.671875 -38.34375 C 15.878906 -37.5625 14.875 -37.171875 13.65625 -37.171875 Z M 25.921875 -37.171875 C 24.710938 -37.171875 23.710938 -37.5625 22.921875 -38.34375 C 22.128906 -39.132812 21.734375 -40.140625 21.734375 -41.359375 C 21.734375 -42.578125 22.128906 -43.578125 22.921875 -44.359375 C 23.710938 -45.148438 24.710938 -45.546875 25.921875 -45.546875 C 27.140625 -45.546875 28.15625 -45.148438 28.96875 -44.359375 C 29.78125 -43.578125 30.1875 -42.578125 30.1875 -41.359375 C 30.1875 -40.140625 29.78125 -39.132812 28.96875 -38.34375 C 28.15625 -37.5625 27.140625 -37.171875 25.921875 -37.171875 Z M 25.921875 -37.171875 "/></g></g></g><g fill="#5ce1e6" fill-opacity="1"><g transform="translate(111.120314, 326.418774)"><g><path d="M 18.40625 -12.8125 L 13.84375 -8.328125 L 13.84375 0 L 4.375 0 L 4.375 -45.0625 L 13.84375 -45.0625 L 13.84375 -19.5625 L 27.6875 -32.671875 L 38.984375 -32.671875 L 25.390625 -18.828125 L 40.203125 0 L 28.734375 0 Z M 18.40625 -12.8125 "/></g></g></g><g fill="#000000" fill-opacity="1"><g transform="translate(151.209167, 326.418774)"><g><path d="M 14.578125 0.296875 C 11.984375 0.296875 9.5 -0.0703125 7.125 -0.8125 C 4.757812 -1.5625 2.910156 -2.503906 1.578125 -3.640625 L 3.515625 -7.046875 C 4.859375 -5.992188 6.539062 -5.132812 8.5625 -4.46875 C 10.582031 -3.800781 12.6875 -3.46875 14.875 -3.46875 C 17.789062 -3.46875 19.945312 -3.921875 21.34375 -4.828125 C 22.738281 -5.734375 23.4375 -7.019531 23.4375 -8.6875 C 23.4375 -9.863281 23.050781 -10.785156 22.28125 -11.453125 C 21.519531 -12.117188 20.550781 -12.625 19.375 -12.96875 C 18.195312 -13.3125 16.640625 -13.644531 14.703125 -13.96875 C 12.109375 -14.457031 10.019531 -14.953125 8.4375 -15.453125 C 6.863281 -15.960938 5.519531 -16.820312 4.40625 -18.03125 C 3.289062 -19.25 2.734375 -20.929688 2.734375 -23.078125 C 2.734375 -25.753906 3.84375 -27.941406 6.0625 -29.640625 C 8.289062 -31.335938 11.390625 -32.1875 15.359375 -32.1875 C 17.429688 -32.1875 19.5 -31.910156 21.5625 -31.359375 C 23.625 -30.816406 25.320312 -30.101562 26.65625 -29.21875 L 24.78125 -25.75 C 22.144531 -27.570312 19.003906 -28.484375 15.359375 -28.484375 C 12.609375 -28.484375 10.535156 -27.992188 9.140625 -27.015625 C 7.742188 -26.046875 7.046875 -24.773438 7.046875 -23.203125 C 7.046875 -21.984375 7.4375 -21.007812 8.21875 -20.28125 C 9.007812 -19.550781 9.992188 -19.015625 11.171875 -18.671875 C 12.347656 -18.328125 13.96875 -17.972656 16.03125 -17.609375 C 18.582031 -17.128906 20.625 -16.644531 22.15625 -16.15625 C 23.695312 -15.664062 25.015625 -14.832031 26.109375 -13.65625 C 27.203125 -12.488281 27.75 -10.875 27.75 -8.8125 C 27.75 -6.007812 26.582031 -3.789062 24.25 -2.15625 C 21.925781 -0.519531 18.703125 0.296875 14.578125 0.296875 Z M 14.578125 0.296875 "/></g></g></g><g fill="#000000" fill-opacity="1"><g transform="translate(180.907521, 326.418774)"><g><path d="M 19.078125 0.296875 C 15.992188 0.296875 13.21875 -0.398438 10.75 -1.796875 C 8.28125 -3.191406 6.335938 -5.125 4.921875 -7.59375 C 3.503906 -10.0625 2.796875 -12.851562 2.796875 -15.96875 C 2.796875 -19.09375 3.503906 -21.890625 4.921875 -24.359375 C 6.335938 -26.828125 8.28125 -28.75 10.75 -30.125 C 13.21875 -31.5 15.992188 -32.1875 19.078125 -32.1875 C 22.148438 -32.1875 24.921875 -31.5 27.390625 -30.125 C 29.859375 -28.75 31.789062 -26.828125 33.1875 -24.359375 C 34.582031 -21.890625 35.28125 -19.09375 35.28125 -15.96875 C 35.28125 -12.851562 34.582031 -10.0625 33.1875 -7.59375 C 31.789062 -5.125 29.859375 -3.191406 27.390625 -1.796875 C 24.921875 -0.398438 22.148438 0.296875 19.078125 0.296875 Z M 19.078125 -3.515625 C 21.335938 -3.515625 23.367188 -4.03125 25.171875 -5.0625 C 26.972656 -6.101562 28.378906 -7.570312 29.390625 -9.46875 C 30.398438 -11.375 30.90625 -13.539062 30.90625 -15.96875 C 30.90625 -18.394531 30.398438 -20.5625 29.390625 -22.46875 C 28.378906 -24.375 26.972656 -25.84375 25.171875 -26.875 C 23.367188 -27.90625 21.335938 -28.421875 19.078125 -28.421875 C 16.804688 -28.421875 14.769531 -27.90625 12.96875 -26.875 C 11.164062 -25.84375 9.75 -24.375 8.71875 -22.46875 C 7.6875 -20.5625 7.171875 -18.394531 7.171875 -15.96875 C 7.171875 -13.539062 7.6875 -11.375 8.71875 -9.46875 C 9.75 -7.570312 11.164062 -6.101562 12.96875 -5.0625 C 14.769531 -4.03125 16.804688 -3.515625 19.078125 -3.515625 Z M 13.609375 -38.328125 C 12.878906 -38.328125 12.257812 -38.566406 11.75 -39.046875 C 11.25 -39.535156 11 -40.164062 11 -40.9375 C 11 -41.664062 11.25 -42.28125 11.75 -42.78125 C 12.257812 -43.289062 12.878906 -43.546875 13.609375 -43.546875 C 14.296875 -43.546875 14.898438 -43.289062 15.421875 -42.78125 C 15.953125 -42.28125 16.21875 -41.664062 16.21875 -40.9375 C 16.21875 -40.207031 15.960938 -39.585938 15.453125 -39.078125 C 14.953125 -38.578125 14.335938 -38.328125 13.609375 -38.328125 Z M 24.421875 -38.328125 C 23.691406 -38.328125 23.070312 -38.578125 22.5625 -39.078125 C 22.0625 -39.585938 21.8125 -40.207031 21.8125 -40.9375 C 21.8125 -41.664062 22.070312 -42.28125 22.59375 -42.78125 C 23.125 -43.289062 23.734375 -43.546875 24.421875 -43.546875 C 25.148438 -43.546875 25.765625 -43.289062 26.265625 -42.78125 C 26.773438 -42.28125 27.03125 -41.664062 27.03125 -40.9375 C 27.03125 -40.164062 26.773438 -39.535156 26.265625 -39.046875 C 25.765625 -38.566406 25.148438 -38.328125 24.421875 -38.328125 Z M 24.421875 -38.328125 "/></g></g></g><g fill="#000000" fill-opacity="1"><g transform="translate(218.987002, 326.418774)"><g><path d="M 28.546875 -3.578125 L 28.546875 0 L 2.546875 0 L 2.546875 -2.859375 L 22.65625 -28.296875 L 2.921875 -28.296875 L 2.921875 -31.953125 L 28.1875 -31.953125 L 28.1875 -29.09375 L 8.078125 -3.578125 Z M 28.546875 -3.578125 "/></g></g></g><g fill="#000000" fill-opacity="1"><g transform="translate(250.021471, 326.418774)"><g><path d="M 6.015625 -45.0625 L 10.328125 -45.0625 L 10.328125 0 L 6.015625 0 Z M 6.015625 -45.0625 "/></g></g></g><g fill="#000000" fill-opacity="1"><g transform="translate(266.358603, 326.418774)"><g><path d="M 34.796875 -31.953125 L 34.796875 0 L 30.671875 0 L 30.671875 -5.828125 C 29.535156 -3.890625 27.972656 -2.382812 25.984375 -1.3125 C 24.003906 -0.238281 21.738281 0.296875 19.1875 0.296875 C 15.019531 0.296875 11.726562 -0.863281 9.3125 -3.1875 C 6.90625 -5.519531 5.703125 -8.929688 5.703125 -13.421875 L 5.703125 -31.953125 L 10.015625 -31.953125 L 10.015625 -13.84375 C 10.015625 -10.488281 10.84375 -7.9375 12.5 -6.1875 C 14.164062 -4.445312 16.535156 -3.578125 19.609375 -3.578125 C 22.972656 -3.578125 25.625 -4.597656 27.5625 -6.640625 C 29.507812 -8.691406 30.484375 -11.539062 30.484375 -15.1875 L 30.484375 -31.953125 Z M 14.875 -38.328125 C 14.144531 -38.328125 13.523438 -38.566406 13.015625 -39.046875 C 12.515625 -39.535156 12.265625 -40.164062 12.265625 -40.9375 C 12.265625 -41.664062 12.515625 -42.28125 13.015625 -42.78125 C 13.523438 -43.289062 14.144531 -43.546875 14.875 -43.546875 C 15.5625 -43.546875 16.164062 -43.289062 16.6875 -42.78125 C 17.21875 -42.28125 17.484375 -41.664062 17.484375 -40.9375 C 17.484375 -40.207031 17.226562 -39.585938 16.71875 -39.078125 C 16.21875 -38.578125 15.601562 -38.328125 14.875 -38.328125 Z M 25.6875 -38.328125 C 24.957031 -38.328125 24.335938 -38.578125 23.828125 -39.078125 C 23.328125 -39.585938 23.078125 -40.207031 23.078125 -40.9375 C 23.078125 -41.664062 23.335938 -42.28125 23.859375 -42.78125 C 24.390625 -43.289062 25 -43.546875 25.6875 -43.546875 C 26.414062 -43.546875 27.03125 -43.289062 27.53125 -42.78125 C 28.039062 -42.28125 28.296875 -41.664062 28.296875 -40.9375 C 28.296875 -40.164062 28.039062 -39.535156 27.53125 -39.046875 C 27.03125 -38.566406 26.414062 -38.328125 25.6875 -38.328125 Z M 25.6875 -38.328125 "/></g></g></g><g fill="#000000" fill-opacity="1"><g transform="translate(307.2318, 326.418774)"><g><path d="M 17.859375 -16.03125 L 10.328125 -9.109375 L 10.328125 0 L 6.015625 0 L 6.015625 -45.0625 L 10.328125 -45.0625 L 10.328125 -14.515625 L 29.390625 -31.953125 L 34.734375 -31.953125 L 21.078125 -18.890625 L 36.015625 0 L 30.734375 0 Z M 17.859375 -16.03125 "/></g></g></g></svg>