<svg xmlns="http://www.w3.org/2000/svg" xmlns:xlink="http://www.w3.org/1999/xlink" width="500" zoomAndPan="magnify" viewBox="0 0 375 374.999991" height="500" preserveAspectRatio="xMidYMid meet" version="1.0"><defs><g/><clipPath id="abcff0e583"><path d="M 124.207031 192.046875 L 221.207031 192.046875 L 221.207031 268.625 L 124.207031 268.625 Z M 124.207031 192.046875 " clip-rule="nonzero"/></clipPath><clipPath id="4735f287a7"><path d="M 75.550781 44.375 L 299.4375 44.375 L 299.4375 268.367188 L 75.550781 268.367188 Z M 75.550781 44.375 " clip-rule="nonzero"/></clipPath></defs><rect x="-37.5" width="450" fill="#ffffff" y="-37.499999" height="449.999989" fill-opacity="1"/><rect x="-37.5" width="450" fill="#ffffff" y="-37.499999" height="449.999989" fill-opacity="1"/><g clip-path="url(#abcff0e583)"><path fill="#e6e7e8" d="M 146.542969 196.066406 C 164.121094 188.390625 183.84375 193.515625 202.753906 197.21875 C 194.367188 209.976562 221.105469 263.839844 221.121094 263.871094 C 210.503906 267.199219 199.207031 268.996094 187.492188 268.996094 C 164.558594 268.996094 143.226562 262.121094 125.453125 250.316406 C 121.210938 229.050781 128.519531 203.933594 146.542969 196.066406 " fill-opacity="1" fill-rule="nonzero"/></g><g clip-path="url(#4735f287a7)"><path fill="#5ce1e6" d="M 198.046875 208.480469 C 173.488281 203.871094 159.722656 222.265625 162.386719 240.464844 C 155.71875 222.699219 163.132812 191.042969 202.753906 197.21875 C 211.566406 198.589844 220.1875 201.960938 230.792969 202.425781 C 237.097656 202.699219 245.320312 200.589844 250.734375 196.339844 C 255.976562 192.226562 258.417969 186.367188 262.808594 183.136719 C 270.988281 178.214844 268.941406 173.0625 263.3125 171.5625 C 242.703125 166.066406 241.472656 158.984375 229.230469 153.003906 C 226.644531 132.410156 205.929688 119.824219 195.5 115.496094 C 188.671875 88.417969 160.085938 85.609375 160.085938 85.609375 C 162.292969 92.21875 161.042969 97.304688 163.753906 108.421875 C 147.992188 104.910156 121.078125 111.40625 107.5625 123.253906 C 121.078125 119.3125 134.101562 120.488281 134.101562 120.488281 C 134.101562 120.488281 89.039062 127.507812 80.28125 169.808594 C 88.917969 155.253906 100.429688 149.785156 100.429688 149.785156 C 87.75 163.839844 82.761719 180.789062 80.800781 191.859375 C 77.152344 180.792969 75.179688 168.96875 75.179688 156.683594 C 75.179688 94.65625 125.464844 44.375 187.492188 44.375 C 249.519531 44.375 299.800781 94.65625 299.800781 156.683594 C 299.800781 214.3125 256.402344 261.800781 200.503906 268.246094 C 158.9375 259.605469 167.253906 210.34375 198.046875 208.480469 " fill-opacity="1" fill-rule="nonzero"/></g><path fill="#5ce1e6" d="M 218.699219 152.234375 C 207.148438 154.480469 208.292969 144.21875 202.753906 140.929688 C 213.210938 140.371094 217.773438 147.9375 218.699219 152.234375 " fill-opacity="1" fill-rule="nonzero"/><g fill="#5ce1e6" fill-opacity="1"><g transform="translate(0.412814, 323.243341)"><g><path d="M 19.390625 -15.78125 L 14 -10.15625 L 14 0 L 4.765625 0 L 4.765625 -40.171875 L 14 -40.171875 L 14 -21.40625 L 31.796875 -40.171875 L 42.125 -40.171875 L 25.484375 -22.265625 L 43.09375 0 L 32.25 0 Z M 19.390625 -15.78125 "/></g></g></g><g fill="#5ce1e6" fill-opacity="1"><g transform="translate(42.870402, 323.243341)"><g><path d="M 24.21875 0.6875 C 20.050781 0.6875 16.289062 -0.207031 12.9375 -2 C 9.59375 -3.800781 6.972656 -6.28125 5.078125 -9.4375 C 3.179688 -12.59375 2.234375 -16.144531 2.234375 -20.09375 C 2.234375 -24.03125 3.179688 -27.578125 5.078125 -30.734375 C 6.972656 -33.890625 9.59375 -36.363281 12.9375 -38.15625 C 16.289062 -39.957031 20.050781 -40.859375 24.21875 -40.859375 C 28.382812 -40.859375 32.128906 -39.957031 35.453125 -38.15625 C 38.785156 -36.363281 41.410156 -33.890625 43.328125 -30.734375 C 45.242188 -27.578125 46.203125 -24.03125 46.203125 -20.09375 C 46.203125 -16.144531 45.242188 -12.59375 43.328125 -9.4375 C 41.410156 -6.28125 38.785156 -3.800781 35.453125 -2 C 32.128906 -0.207031 28.382812 0.6875 24.21875 0.6875 Z M 24.21875 -7.234375 C 26.59375 -7.234375 28.734375 -7.773438 30.640625 -8.859375 C 32.554688 -9.953125 34.054688 -11.472656 35.140625 -13.421875 C 36.234375 -15.378906 36.78125 -17.601562 36.78125 -20.09375 C 36.78125 -22.570312 36.234375 -24.785156 35.140625 -26.734375 C 34.054688 -28.691406 32.554688 -30.210938 30.640625 -31.296875 C 28.734375 -32.390625 26.59375 -32.9375 24.21875 -32.9375 C 21.84375 -32.9375 19.695312 -32.390625 17.78125 -31.296875 C 15.875 -30.210938 14.375 -28.691406 13.28125 -26.734375 C 12.195312 -24.785156 11.65625 -22.570312 11.65625 -20.09375 C 11.65625 -17.601562 12.195312 -15.378906 13.28125 -13.421875 C 14.375 -11.472656 15.875 -9.953125 17.78125 -8.859375 C 19.695312 -7.773438 21.84375 -7.234375 24.21875 -7.234375 Z M 18.421875 -43.734375 C 17.273438 -43.734375 16.316406 -44.101562 15.546875 -44.84375 C 14.785156 -45.59375 14.40625 -46.539062 14.40625 -47.6875 C 14.40625 -48.832031 14.785156 -49.78125 15.546875 -50.53125 C 16.316406 -51.28125 17.273438 -51.65625 18.421875 -51.65625 C 19.566406 -51.65625 20.515625 -51.28125 21.265625 -50.53125 C 22.015625 -49.78125 22.390625 -48.832031 22.390625 -47.6875 C 22.390625 -46.539062 22.015625 -45.59375 21.265625 -44.84375 C 20.515625 -44.101562 19.566406 -43.734375 18.421875 -43.734375 Z M 30.015625 -43.734375 C 28.867188 -43.734375 27.921875 -44.101562 27.171875 -44.84375 C 26.429688 -45.59375 26.0625 -46.539062 26.0625 -47.6875 C 26.0625 -48.832031 26.429688 -49.78125 27.171875 -50.53125 C 27.921875 -51.28125 28.867188 -51.65625 30.015625 -51.65625 C 31.160156 -51.65625 32.113281 -51.28125 32.875 -50.53125 C 33.644531 -49.78125 34.03125 -48.832031 34.03125 -47.6875 C 34.03125 -46.539062 33.644531 -45.59375 32.875 -44.84375 C 32.113281 -44.101562 31.160156 -43.734375 30.015625 -43.734375 Z M 30.015625 -43.734375 "/></g></g></g><g fill="#5ce1e6" fill-opacity="1"><g transform="translate(91.295002, 323.243341)"><g><path d="M 19.390625 -15.78125 L 14 -10.15625 L 14 0 L 4.765625 0 L 4.765625 -40.171875 L 14 -40.171875 L 14 -21.40625 L 31.796875 -40.171875 L 42.125 -40.171875 L 25.484375 -22.265625 L 43.09375 0 L 32.25 0 Z M 19.390625 -15.78125 "/></g></g></g><g fill="#000000" fill-opacity="1"><g transform="translate(133.753398, 323.243341)"><g><path d="M 17.625 0.34375 C 14.632812 0.34375 11.769531 -0.132812 9.03125 -1.09375 C 6.300781 -2.050781 4.191406 -3.3125 2.703125 -4.875 L 4.359375 -8.15625 C 5.816406 -6.695312 7.75 -5.515625 10.15625 -4.609375 C 12.570312 -3.710938 15.0625 -3.265625 17.625 -3.265625 C 21.21875 -3.265625 23.910156 -3.925781 25.703125 -5.25 C 27.503906 -6.570312 28.40625 -8.285156 28.40625 -10.390625 C 28.40625 -11.992188 27.914062 -13.273438 26.9375 -14.234375 C 25.96875 -15.191406 24.773438 -15.925781 23.359375 -16.4375 C 21.941406 -16.957031 19.972656 -17.523438 17.453125 -18.140625 C 14.421875 -18.898438 12.003906 -19.632812 10.203125 -20.34375 C 8.410156 -21.050781 6.875 -22.128906 5.59375 -23.578125 C 4.3125 -25.035156 3.671875 -27.007812 3.671875 -29.5 C 3.671875 -31.53125 4.207031 -33.375 5.28125 -35.03125 C 6.351562 -36.695312 8 -38.023438 10.21875 -39.015625 C 12.4375 -40.015625 15.191406 -40.515625 18.484375 -40.515625 C 20.773438 -40.515625 23.019531 -40.195312 25.21875 -39.5625 C 27.414062 -38.9375 29.320312 -38.066406 30.9375 -36.953125 L 29.5 -33.578125 C 27.8125 -34.679688 26.007812 -35.507812 24.09375 -36.0625 C 22.1875 -36.625 20.316406 -36.90625 18.484375 -36.90625 C 14.960938 -36.90625 12.3125 -36.222656 10.53125 -34.859375 C 8.75 -33.503906 7.859375 -31.753906 7.859375 -29.609375 C 7.859375 -28.003906 8.347656 -26.710938 9.328125 -25.734375 C 10.304688 -24.765625 11.53125 -24.019531 13 -23.5 C 14.46875 -22.988281 16.445312 -22.425781 18.9375 -21.8125 C 21.882812 -21.082031 24.265625 -20.363281 26.078125 -19.65625 C 27.898438 -18.945312 29.441406 -17.875 30.703125 -16.4375 C 31.960938 -15.007812 32.59375 -13.070312 32.59375 -10.625 C 32.59375 -8.59375 32.046875 -6.742188 30.953125 -5.078125 C 29.867188 -3.410156 28.195312 -2.085938 25.9375 -1.109375 C 23.675781 -0.140625 20.90625 0.34375 17.625 0.34375 Z M 17.625 0.34375 "/></g></g></g><g fill="#000000" fill-opacity="1"><g transform="translate(169.039098, 323.243341)"><g><path d="M 24.109375 0.34375 C 20.128906 0.34375 16.519531 -0.546875 13.28125 -2.328125 C 10.050781 -4.109375 7.523438 -6.546875 5.703125 -9.640625 C 3.890625 -12.742188 2.984375 -16.226562 2.984375 -20.09375 C 2.984375 -23.957031 3.890625 -27.4375 5.703125 -30.53125 C 7.523438 -33.632812 10.050781 -36.070312 13.28125 -37.84375 C 16.519531 -39.625 20.128906 -40.515625 24.109375 -40.515625 C 28.085938 -40.515625 31.671875 -39.632812 34.859375 -37.875 C 38.054688 -36.113281 40.570312 -33.675781 42.40625 -30.5625 C 44.25 -27.445312 45.171875 -23.957031 45.171875 -20.09375 C 45.171875 -16.226562 44.25 -12.734375 42.40625 -9.609375 C 40.570312 -6.492188 38.054688 -4.054688 34.859375 -2.296875 C 31.671875 -0.535156 28.085938 0.34375 24.109375 0.34375 Z M 24.109375 -3.4375 C 27.285156 -3.4375 30.15625 -4.15625 32.71875 -5.59375 C 35.28125 -7.03125 37.285156 -9.019531 38.734375 -11.5625 C 40.191406 -14.101562 40.921875 -16.945312 40.921875 -20.09375 C 40.921875 -23.226562 40.191406 -26.066406 38.734375 -28.609375 C 37.285156 -31.148438 35.28125 -33.140625 32.71875 -34.578125 C 30.15625 -36.015625 27.285156 -36.734375 24.109375 -36.734375 C 20.929688 -36.734375 18.050781 -36.015625 15.46875 -34.578125 C 12.882812 -33.140625 10.851562 -31.148438 9.375 -28.609375 C 7.90625 -26.066406 7.171875 -23.226562 7.171875 -20.09375 C 7.171875 -16.945312 7.90625 -14.101562 9.375 -11.5625 C 10.851562 -9.019531 12.882812 -7.03125 15.46875 -5.59375 C 18.050781 -4.15625 20.929688 -3.4375 24.109375 -3.4375 Z M 19 -44.765625 C 18.3125 -44.765625 17.726562 -44.992188 17.25 -45.453125 C 16.769531 -45.910156 16.53125 -46.503906 16.53125 -47.234375 C 16.53125 -47.921875 16.769531 -48.503906 17.25 -48.984375 C 17.726562 -49.460938 18.3125 -49.703125 19 -49.703125 C 19.65625 -49.703125 20.226562 -49.460938 20.71875 -48.984375 C 21.21875 -48.503906 21.46875 -47.921875 21.46875 -47.234375 C 21.46875 -46.546875 21.226562 -45.960938 20.75 -45.484375 C 20.269531 -45.003906 19.6875 -44.765625 19 -44.765625 Z M 29.21875 -44.765625 C 28.53125 -44.765625 27.945312 -45.003906 27.46875 -45.484375 C 26.988281 -45.960938 26.75 -46.546875 26.75 -47.234375 C 26.75 -47.921875 27 -48.503906 27.5 -48.984375 C 28 -49.460938 28.570312 -49.703125 29.21875 -49.703125 C 29.90625 -49.703125 30.488281 -49.460938 30.96875 -48.984375 C 31.445312 -48.503906 31.6875 -47.921875 31.6875 -47.234375 C 31.6875 -46.503906 31.445312 -45.910156 30.96875 -45.453125 C 30.488281 -44.992188 29.90625 -44.765625 29.21875 -44.765625 Z M 29.21875 -44.765625 "/></g></g></g><g fill="#000000" fill-opacity="1"><g transform="translate(217.176832, 323.243341)"><g><path d="M 35.53125 -3.671875 L 35.53125 0 L 2.578125 0 L 2.578125 -2.921875 L 29.21875 -36.5 L 2.984375 -36.5 L 2.984375 -40.171875 L 34.84375 -40.171875 L 34.84375 -37.25 L 8.265625 -3.671875 Z M 35.53125 -3.671875 "/></g></g></g><g fill="#000000" fill-opacity="1"><g transform="translate(254.528031, 323.243341)"><g><path d="M 6.546875 -40.171875 L 10.796875 -40.171875 L 10.796875 -3.671875 L 33.28125 -3.671875 L 33.28125 0 L 6.546875 0 Z M 6.546875 -40.171875 "/></g></g></g><g fill="#000000" fill-opacity="1"><g transform="translate(288.321974, 323.243341)"><g><path d="M 22.734375 0.34375 C 17.523438 0.34375 13.46875 -1.144531 10.5625 -4.125 C 7.65625 -7.113281 6.203125 -11.457031 6.203125 -17.15625 L 6.203125 -40.171875 L 10.4375 -40.171875 L 10.4375 -17.328125 C 10.4375 -12.660156 11.488281 -9.175781 13.59375 -6.875 C 15.707031 -4.582031 18.753906 -3.4375 22.734375 -3.4375 C 26.742188 -3.4375 29.800781 -4.582031 31.90625 -6.875 C 34.007812 -9.175781 35.0625 -12.660156 35.0625 -17.328125 L 35.0625 -40.171875 L 39.203125 -40.171875 L 39.203125 -17.15625 C 39.203125 -11.457031 37.753906 -7.113281 34.859375 -4.125 C 31.972656 -1.144531 27.929688 0.34375 22.734375 0.34375 Z M 17.609375 -44.765625 C 16.921875 -44.765625 16.335938 -44.992188 15.859375 -45.453125 C 15.378906 -45.910156 15.140625 -46.503906 15.140625 -47.234375 C 15.140625 -47.921875 15.378906 -48.503906 15.859375 -48.984375 C 16.335938 -49.460938 16.921875 -49.703125 17.609375 -49.703125 C 18.265625 -49.703125 18.835938 -49.460938 19.328125 -48.984375 C 19.828125 -48.503906 20.078125 -47.921875 20.078125 -47.234375 C 20.078125 -46.546875 19.835938 -45.960938 19.359375 -45.484375 C 18.878906 -45.003906 18.296875 -44.765625 17.609375 -44.765625 Z M 27.828125 -44.765625 C 27.140625 -44.765625 26.554688 -45.003906 26.078125 -45.484375 C 25.597656 -45.960938 25.359375 -46.546875 25.359375 -47.234375 C 25.359375 -47.921875 25.609375 -48.503906 26.109375 -48.984375 C 26.609375 -49.460938 27.179688 -49.703125 27.828125 -49.703125 C 28.515625 -49.703125 29.097656 -49.460938 29.578125 -48.984375 C 30.054688 -48.503906 30.296875 -47.921875 30.296875 -47.234375 C 30.296875 -46.503906 30.054688 -45.910156 29.578125 -45.453125 C 29.097656 -44.992188 28.515625 -44.765625 27.828125 -44.765625 Z M 27.828125 -44.765625 "/></g></g></g><g fill="#000000" fill-opacity="1"><g transform="translate(333.763075, 323.243341)"><g><path d="M 19 -18.875 L 10.796875 -10.5625 L 10.796875 0 L 6.546875 0 L 6.546875 -40.171875 L 10.796875 -40.171875 L 10.796875 -15.890625 L 34.375 -40.171875 L 39.25 -40.171875 L 21.859375 -21.984375 L 40.453125 0 L 35.40625 0 Z M 19 -18.875 "/></g></g></g></svg>