<svg xmlns="http://www.w3.org/2000/svg" xmlns:xlink="http://www.w3.org/1999/xlink" width="351" zoomAndPan="magnify" viewBox="0 0 263.25 66" height="88" preserveAspectRatio="xMidYMid meet" version="1.0"><defs><g/></defs><g fill="#5ce1e6" fill-opacity="1"><g transform="translate(12.143459, 45.81685)"><g><path d="M 12.359375 -10.046875 L 8.921875 -6.46875 L 8.921875 0 L 3.03125 0 L 3.03125 -25.59375 L 8.921875 -25.59375 L 8.921875 -13.640625 L 20.25 -25.59375 L 26.84375 -25.59375 L 16.234375 -14.1875 L 27.453125 0 L 20.546875 0 Z M 12.359375 -10.046875 "/></g></g></g><g fill="#5ce1e6" fill-opacity="1"><g transform="translate(39.196673, 45.81685)"><g><path d="M 15.421875 0.4375 C 12.765625 0.4375 10.367188 -0.132812 8.234375 -1.28125 C 6.109375 -2.425781 4.441406 -4.003906 3.234375 -6.015625 C 2.023438 -8.023438 1.421875 -10.285156 1.421875 -12.796875 C 1.421875 -15.304688 2.023438 -17.566406 3.234375 -19.578125 C 4.441406 -21.585938 6.109375 -23.164062 8.234375 -24.3125 C 10.367188 -25.457031 12.765625 -26.03125 15.421875 -26.03125 C 18.085938 -26.03125 20.476562 -25.457031 22.59375 -24.3125 C 24.71875 -23.164062 26.390625 -21.585938 27.609375 -19.578125 C 28.828125 -17.566406 29.4375 -15.304688 29.4375 -12.796875 C 29.4375 -10.285156 28.828125 -8.023438 27.609375 -6.015625 C 26.390625 -4.003906 24.71875 -2.425781 22.59375 -1.28125 C 20.476562 -0.132812 18.085938 0.4375 15.421875 0.4375 Z M 15.421875 -4.609375 C 16.941406 -4.609375 18.3125 -4.953125 19.53125 -5.640625 C 20.75 -6.335938 21.703125 -7.304688 22.390625 -8.546875 C 23.085938 -9.796875 23.4375 -11.210938 23.4375 -12.796875 C 23.4375 -14.378906 23.085938 -15.789062 22.390625 -17.03125 C 21.703125 -18.28125 20.75 -19.25 19.53125 -19.9375 C 18.3125 -20.632812 16.941406 -20.984375 15.421875 -20.984375 C 13.910156 -20.984375 12.546875 -20.632812 11.328125 -19.9375 C 10.109375 -19.25 9.148438 -18.28125 8.453125 -17.03125 C 7.765625 -15.789062 7.421875 -14.378906 7.421875 -12.796875 C 7.421875 -11.210938 7.765625 -9.796875 8.453125 -8.546875 C 9.148438 -7.304688 10.109375 -6.335938 11.328125 -5.640625 C 12.546875 -4.953125 13.910156 -4.609375 15.421875 -4.609375 Z M 11.734375 -27.859375 C 10.992188 -27.859375 10.378906 -28.09375 9.890625 -28.5625 C 9.410156 -29.039062 9.171875 -29.648438 9.171875 -30.390625 C 9.171875 -31.117188 9.410156 -31.71875 9.890625 -32.1875 C 10.378906 -32.664062 10.992188 -32.90625 11.734375 -32.90625 C 12.460938 -32.90625 13.0625 -32.664062 13.53125 -32.1875 C 14.007812 -31.71875 14.25 -31.117188 14.25 -30.390625 C 14.25 -29.648438 14.007812 -29.039062 13.53125 -28.5625 C 13.0625 -28.09375 12.460938 -27.859375 11.734375 -27.859375 Z M 19.109375 -27.859375 C 18.378906 -27.859375 17.773438 -28.09375 17.296875 -28.5625 C 16.828125 -29.039062 16.59375 -29.648438 16.59375 -30.390625 C 16.59375 -31.117188 16.828125 -31.71875 17.296875 -32.1875 C 17.773438 -32.664062 18.378906 -32.90625 19.109375 -32.90625 C 19.847656 -32.90625 20.457031 -32.664062 20.9375 -32.1875 C 21.425781 -31.71875 21.671875 -31.117188 21.671875 -30.390625 C 21.671875 -29.648438 21.425781 -29.039062 20.9375 -28.5625 C 20.457031 -28.09375 19.847656 -27.859375 19.109375 -27.859375 Z M 19.109375 -27.859375 "/></g></g></g><g fill="#5ce1e6" fill-opacity="1"><g transform="translate(70.05196, 45.81685)"><g><path d="M 12.359375 -10.046875 L 8.921875 -6.46875 L 8.921875 0 L 3.03125 0 L 3.03125 -25.59375 L 8.921875 -25.59375 L 8.921875 -13.640625 L 20.25 -25.59375 L 26.84375 -25.59375 L 16.234375 -14.1875 L 27.453125 0 L 20.546875 0 Z M 12.359375 -10.046875 "/></g></g></g><g fill="#000000" fill-opacity="1"><g transform="translate(97.106443, 45.81685)"><g><path d="M 11.21875 0.21875 C 9.320312 0.21875 7.5 -0.0820312 5.75 -0.6875 C 4.007812 -1.300781 2.664062 -2.109375 1.71875 -3.109375 L 2.78125 -5.1875 C 3.707031 -4.257812 4.9375 -3.507812 6.46875 -2.9375 C 8.007812 -2.363281 9.59375 -2.078125 11.21875 -2.078125 C 13.507812 -2.078125 15.226562 -2.5 16.375 -3.34375 C 17.519531 -4.1875 18.09375 -5.28125 18.09375 -6.625 C 18.09375 -7.644531 17.78125 -8.457031 17.15625 -9.0625 C 16.539062 -9.675781 15.78125 -10.144531 14.875 -10.46875 C 13.976562 -10.800781 12.722656 -11.160156 11.109375 -11.546875 C 9.179688 -12.035156 7.644531 -12.503906 6.5 -12.953125 C 5.363281 -13.410156 4.382812 -14.101562 3.5625 -15.03125 C 2.75 -15.957031 2.34375 -17.210938 2.34375 -18.796875 C 2.34375 -20.085938 2.679688 -21.257812 3.359375 -22.3125 C 4.046875 -23.375 5.09375 -24.222656 6.5 -24.859375 C 7.914062 -25.492188 9.671875 -25.8125 11.765625 -25.8125 C 13.234375 -25.8125 14.664062 -25.609375 16.0625 -25.203125 C 17.46875 -24.804688 18.679688 -24.253906 19.703125 -23.546875 L 18.796875 -21.390625 C 17.722656 -22.097656 16.578125 -22.628906 15.359375 -22.984375 C 14.140625 -23.335938 12.941406 -23.515625 11.765625 -23.515625 C 9.523438 -23.515625 7.835938 -23.078125 6.703125 -22.203125 C 5.578125 -21.335938 5.015625 -20.222656 5.015625 -18.859375 C 5.015625 -17.835938 5.320312 -17.015625 5.9375 -16.390625 C 6.5625 -15.773438 7.34375 -15.300781 8.28125 -14.96875 C 9.21875 -14.644531 10.476562 -14.285156 12.0625 -13.890625 C 13.9375 -13.429688 15.453125 -12.972656 16.609375 -12.515625 C 17.773438 -12.066406 18.757812 -11.382812 19.5625 -10.46875 C 20.363281 -9.5625 20.765625 -8.328125 20.765625 -6.765625 C 20.765625 -5.472656 20.414062 -4.296875 19.71875 -3.234375 C 19.03125 -2.171875 17.96875 -1.328125 16.53125 -0.703125 C 15.09375 -0.0859375 13.320312 0.21875 11.21875 0.21875 Z M 11.21875 0.21875 "/></g></g></g><g fill="#000000" fill-opacity="1"><g transform="translate(119.589855, 45.81685)"><g><path d="M 15.359375 0.21875 C 12.816406 0.21875 10.515625 -0.347656 8.453125 -1.484375 C 6.398438 -2.617188 4.796875 -4.171875 3.640625 -6.140625 C 2.484375 -8.117188 1.90625 -10.335938 1.90625 -12.796875 C 1.90625 -15.253906 2.484375 -17.46875 3.640625 -19.4375 C 4.796875 -21.414062 6.398438 -22.972656 8.453125 -24.109375 C 10.515625 -25.242188 12.816406 -25.8125 15.359375 -25.8125 C 17.890625 -25.8125 20.171875 -25.25 22.203125 -24.125 C 24.242188 -23.007812 25.847656 -21.457031 27.015625 -19.46875 C 28.191406 -17.476562 28.78125 -15.253906 28.78125 -12.796875 C 28.78125 -10.335938 28.191406 -8.113281 27.015625 -6.125 C 25.847656 -4.132812 24.242188 -2.578125 22.203125 -1.453125 C 20.171875 -0.335938 17.890625 0.21875 15.359375 0.21875 Z M 15.359375 -2.1875 C 17.378906 -2.1875 19.207031 -2.644531 20.84375 -3.5625 C 22.476562 -4.476562 23.753906 -5.742188 24.671875 -7.359375 C 25.597656 -8.984375 26.0625 -10.796875 26.0625 -12.796875 C 26.0625 -14.796875 25.597656 -16.601562 24.671875 -18.21875 C 23.753906 -19.84375 22.476562 -21.113281 20.84375 -22.03125 C 19.207031 -22.945312 17.378906 -23.40625 15.359375 -23.40625 C 13.335938 -23.40625 11.503906 -22.945312 9.859375 -22.03125 C 8.210938 -21.113281 6.914062 -19.84375 5.96875 -18.21875 C 5.03125 -16.601562 4.5625 -14.796875 4.5625 -12.796875 C 4.5625 -10.796875 5.03125 -8.984375 5.96875 -7.359375 C 6.914062 -5.742188 8.210938 -4.476562 9.859375 -3.5625 C 11.503906 -2.644531 13.335938 -2.1875 15.359375 -2.1875 Z M 12.109375 -28.515625 C 11.671875 -28.515625 11.296875 -28.660156 10.984375 -28.953125 C 10.679688 -29.242188 10.53125 -29.625 10.53125 -30.09375 C 10.53125 -30.53125 10.679688 -30.898438 10.984375 -31.203125 C 11.296875 -31.503906 11.671875 -31.65625 12.109375 -31.65625 C 12.523438 -31.65625 12.890625 -31.503906 13.203125 -31.203125 C 13.515625 -30.898438 13.671875 -30.53125 13.671875 -30.09375 C 13.671875 -29.65625 13.519531 -29.28125 13.21875 -28.96875 C 12.914062 -28.664062 12.546875 -28.515625 12.109375 -28.515625 Z M 18.609375 -28.515625 C 18.171875 -28.515625 17.800781 -28.664062 17.5 -28.96875 C 17.195312 -29.28125 17.046875 -29.65625 17.046875 -30.09375 C 17.046875 -30.53125 17.203125 -30.898438 17.515625 -31.203125 C 17.828125 -31.503906 18.191406 -31.65625 18.609375 -31.65625 C 19.046875 -31.65625 19.414062 -31.503906 19.71875 -31.203125 C 20.03125 -30.898438 20.1875 -30.53125 20.1875 -30.09375 C 20.1875 -29.625 20.03125 -29.242188 19.71875 -28.953125 C 19.414062 -28.660156 19.046875 -28.515625 18.609375 -28.515625 Z M 18.609375 -28.515625 "/></g></g></g><g fill="#000000" fill-opacity="1"><g transform="translate(150.26235, 45.81685)"><g><path d="M 22.625 -2.34375 L 22.625 0 L 1.640625 0 L 1.640625 -1.859375 L 18.609375 -23.25 L 1.90625 -23.25 L 1.90625 -25.59375 L 22.1875 -25.59375 L 22.1875 -23.734375 L 5.265625 -2.34375 Z M 22.625 -2.34375 "/></g></g></g><g fill="#000000" fill-opacity="1"><g transform="translate(174.061871, 45.81685)"><g><path d="M 4.171875 -25.59375 L 6.875 -25.59375 L 6.875 -2.34375 L 21.203125 -2.34375 L 21.203125 0 L 4.171875 0 Z M 4.171875 -25.59375 "/></g></g></g><g fill="#000000" fill-opacity="1"><g transform="translate(195.594764, 45.81685)"><g><path d="M 14.484375 0.21875 C 11.160156 0.21875 8.570312 -0.726562 6.71875 -2.625 C 4.875 -4.53125 3.953125 -7.300781 3.953125 -10.9375 L 3.953125 -25.59375 L 6.65625 -25.59375 L 6.65625 -11.046875 C 6.65625 -8.066406 7.320312 -5.84375 8.65625 -4.375 C 10 -2.914062 11.941406 -2.1875 14.484375 -2.1875 C 17.035156 -2.1875 18.984375 -2.914062 20.328125 -4.375 C 21.671875 -5.84375 22.34375 -8.066406 22.34375 -11.046875 L 22.34375 -25.59375 L 24.96875 -25.59375 L 24.96875 -10.9375 C 24.96875 -7.300781 24.046875 -4.53125 22.203125 -2.625 C 20.367188 -0.726562 17.796875 0.21875 14.484375 0.21875 Z M 11.234375 -28.515625 C 10.796875 -28.515625 10.421875 -28.660156 10.109375 -28.953125 C 9.804688 -29.242188 9.65625 -29.625 9.65625 -30.09375 C 9.65625 -30.53125 9.804688 -30.898438 10.109375 -31.203125 C 10.421875 -31.503906 10.796875 -31.65625 11.234375 -31.65625 C 11.648438 -31.65625 12.015625 -31.503906 12.328125 -31.203125 C 12.640625 -30.898438 12.796875 -30.53125 12.796875 -30.09375 C 12.796875 -29.65625 12.644531 -29.28125 12.34375 -28.96875 C 12.039062 -28.664062 11.671875 -28.515625 11.234375 -28.515625 Z M 17.734375 -28.515625 C 17.296875 -28.515625 16.925781 -28.664062 16.625 -28.96875 C 16.320312 -29.28125 16.171875 -29.65625 16.171875 -30.09375 C 16.171875 -30.53125 16.328125 -30.898438 16.640625 -31.203125 C 16.953125 -31.503906 17.316406 -31.65625 17.734375 -31.65625 C 18.171875 -31.65625 18.539062 -31.503906 18.84375 -31.203125 C 19.15625 -30.898438 19.3125 -30.53125 19.3125 -30.09375 C 19.3125 -29.625 19.15625 -29.242188 18.84375 -28.953125 C 18.539062 -28.660156 18.171875 -28.515625 17.734375 -28.515625 Z M 17.734375 -28.515625 "/></g></g></g><g fill="#000000" fill-opacity="1"><g transform="translate(224.549008, 45.81685)"><g><path d="M 12.109375 -12.03125 L 6.875 -6.734375 L 6.875 0 L 4.171875 0 L 4.171875 -25.59375 L 6.875 -25.59375 L 6.875 -10.125 L 21.90625 -25.59375 L 25.015625 -25.59375 L 13.9375 -14 L 25.78125 0 L 22.5625 0 Z M 12.109375 -12.03125 "/></g></g></g><g fill="#000000" fill-opacity="1"><g transform="translate(190.076873, 55.58635)"><g><path d="M 1.828125 -3.625 L 0.40625 -3.625 L 0.578125 -4.46875 L 4.46875 -4.46875 L 4.296875 -3.625 L 2.875 -3.625 L 2.140625 0 L 1.109375 0 Z M 1.828125 -3.625 "/></g></g></g><g fill="#000000" fill-opacity="1"><g transform="translate(194.024631, 55.58635)"><g><path d="M 4.265625 -3.4375 L 3.578125 0 L 2.640625 0 L 2.703125 -0.375 C 2.554688 -0.226562 2.382812 -0.117188 2.1875 -0.046875 C 2 0.015625 1.800781 0.046875 1.59375 0.046875 C 1.21875 0.046875 0.914062 -0.0507812 0.6875 -0.25 C 0.46875 -0.457031 0.359375 -0.75 0.359375 -1.125 C 0.359375 -1.257812 0.375 -1.394531 0.40625 -1.53125 L 0.78125 -3.4375 L 1.78125 -3.4375 L 1.40625 -1.59375 C 1.394531 -1.507812 1.390625 -1.425781 1.390625 -1.34375 C 1.390625 -0.988281 1.582031 -0.8125 1.96875 -0.8125 C 2.21875 -0.8125 2.421875 -0.882812 2.578125 -1.03125 C 2.742188 -1.175781 2.859375 -1.394531 2.921875 -1.6875 L 3.265625 -3.4375 Z M 2.015625 -3.90625 C 1.898438 -3.90625 1.800781 -3.941406 1.71875 -4.015625 C 1.644531 -4.085938 1.609375 -4.1875 1.609375 -4.3125 C 1.609375 -4.445312 1.65625 -4.5625 1.75 -4.65625 C 1.84375 -4.75 1.953125 -4.796875 2.078125 -4.796875 C 2.203125 -4.796875 2.300781 -4.757812 2.375 -4.6875 C 2.457031 -4.613281 2.5 -4.515625 2.5 -4.390625 C 2.5 -4.253906 2.453125 -4.140625 2.359375 -4.046875 C 2.265625 -3.953125 2.148438 -3.90625 2.015625 -3.90625 Z M 3.328125 -3.90625 C 3.203125 -3.90625 3.097656 -3.941406 3.015625 -4.015625 C 2.941406 -4.085938 2.90625 -4.1875 2.90625 -4.3125 C 2.90625 -4.457031 2.953125 -4.570312 3.046875 -4.65625 C 3.140625 -4.75 3.25 -4.796875 3.375 -4.796875 C 3.5 -4.796875 3.597656 -4.757812 3.671875 -4.6875 C 3.753906 -4.613281 3.796875 -4.515625 3.796875 -4.390625 C 3.796875 -4.253906 3.75 -4.140625 3.65625 -4.046875 C 3.5625 -3.953125 3.453125 -3.90625 3.328125 -3.90625 Z M 3.328125 -3.90625 "/></g></g></g><g fill="#000000" fill-opacity="1"><g transform="translate(198.413159, 55.58635)"><g><path d="M 1.671875 -3.03125 C 1.816406 -3.1875 1.992188 -3.300781 2.203125 -3.375 C 2.421875 -3.445312 2.671875 -3.484375 2.953125 -3.484375 L 2.78125 -2.5625 C 2.65625 -2.570312 2.578125 -2.578125 2.546875 -2.578125 C 2.242188 -2.578125 2 -2.503906 1.8125 -2.359375 C 1.632812 -2.210938 1.515625 -1.976562 1.453125 -1.65625 L 1.125 0 L 0.125 0 L 0.8125 -3.4375 L 1.75 -3.4375 Z M 1.671875 -3.03125 "/></g></g></g><g fill="#000000" fill-opacity="1"><g transform="translate(201.166369, 55.58635)"><g><path d="M 2.6875 -1.9375 L 3.859375 0 L 2.703125 0 L 1.890625 -1.328125 L 1.28125 -0.828125 L 1.125 0 L 0.125 0 L 1.0625 -4.734375 L 2.0625 -4.734375 L 1.53125 -2.09375 L 3.1875 -3.4375 L 4.484375 -3.4375 Z M 2.6875 -1.9375 "/></g></g></g><g fill="#000000" fill-opacity="1"><g transform="translate(205.290606, 55.58635)"><g><path d="M 1.234375 -4.78125 C 1.328125 -4.78125 1.40625 -4.742188 1.46875 -4.671875 C 1.53125 -4.609375 1.5625 -4.53125 1.5625 -4.4375 C 1.5625 -4.382812 1.550781 -4.332031 1.53125 -4.28125 C 1.519531 -4.238281 1.492188 -4.179688 1.453125 -4.109375 L 0.96875 -3.1875 L 0.65625 -3.1875 L 1.0625 -4.109375 C 1.007812 -4.140625 0.960938 -4.179688 0.921875 -4.234375 C 0.890625 -4.285156 0.875 -4.34375 0.875 -4.40625 C 0.875 -4.507812 0.910156 -4.597656 0.984375 -4.671875 C 1.054688 -4.742188 1.140625 -4.78125 1.234375 -4.78125 Z M 1.234375 -4.78125 "/></g></g></g><g fill="#000000" fill-opacity="1"><g transform="translate(206.644855, 55.58635)"><g><path d="M 0.71875 -1.546875 C 0.71875 -1.523438 0.71875 -1.484375 0.71875 -1.421875 C 0.71875 -1.078125 0.8125 -0.816406 1 -0.640625 C 1.195312 -0.460938 1.488281 -0.375 1.875 -0.375 C 2.09375 -0.375 2.296875 -0.410156 2.484375 -0.484375 C 2.679688 -0.554688 2.84375 -0.660156 2.96875 -0.796875 L 3.171875 -0.46875 C 3.015625 -0.3125 2.816406 -0.1875 2.578125 -0.09375 C 2.347656 -0.0078125 2.097656 0.03125 1.828125 0.03125 C 1.347656 0.03125 0.96875 -0.09375 0.6875 -0.34375 C 0.40625 -0.601562 0.265625 -0.957031 0.265625 -1.40625 C 0.265625 -1.78125 0.34375 -2.117188 0.5 -2.421875 C 0.664062 -2.722656 0.890625 -2.957031 1.171875 -3.125 C 1.453125 -3.300781 1.769531 -3.390625 2.125 -3.390625 C 2.570312 -3.390625 2.925781 -3.257812 3.1875 -3 C 3.457031 -2.75 3.59375 -2.40625 3.59375 -1.96875 C 3.59375 -1.84375 3.578125 -1.703125 3.546875 -1.546875 Z M 2.109375 -3 C 1.773438 -3 1.488281 -2.898438 1.25 -2.703125 C 1.007812 -2.503906 0.847656 -2.234375 0.765625 -1.890625 L 3.15625 -1.890625 C 3.164062 -1.921875 3.171875 -1.960938 3.171875 -2.015625 C 3.171875 -2.328125 3.070312 -2.566406 2.875 -2.734375 C 2.6875 -2.910156 2.429688 -3 2.109375 -3 Z M 2.109375 -3 "/></g></g></g><g fill="#000000" fill-opacity="1"><g transform="translate(210.503181, 55.58635)"><g/></g></g><g fill="#000000" fill-opacity="1"><g transform="translate(212.176827, 55.58635)"><g><path d="M 1.03125 -1.015625 C 1.007812 -0.910156 1 -0.84375 1 -0.8125 C 1 -0.507812 1.160156 -0.359375 1.484375 -0.359375 C 1.679688 -0.359375 1.851562 -0.414062 2 -0.53125 L 2.109375 -0.1875 C 1.921875 -0.0390625 1.675781 0.03125 1.375 0.03125 C 1.113281 0.03125 0.910156 -0.0351562 0.765625 -0.171875 C 0.617188 -0.304688 0.546875 -0.492188 0.546875 -0.734375 C 0.546875 -0.828125 0.554688 -0.914062 0.578125 -1 L 0.96875 -2.984375 L 0.375 -2.984375 L 0.4375 -3.359375 L 1.046875 -3.359375 L 1.1875 -4.09375 L 1.640625 -4.09375 L 1.5 -3.359375 L 2.515625 -3.359375 L 2.4375 -2.984375 L 1.421875 -2.984375 Z M 1.03125 -1.015625 "/></g></g></g><g fill="#000000" fill-opacity="1"><g transform="translate(214.770337, 55.58635)"><g><path d="M 4.03125 -3.359375 L 3.375 0 L 2.9375 0 L 3.046875 -0.53125 C 2.878906 -0.351562 2.6875 -0.210938 2.46875 -0.109375 C 2.25 -0.015625 2.003906 0.03125 1.734375 0.03125 C 1.441406 0.03125 1.1875 -0.0234375 0.96875 -0.140625 C 0.75 -0.253906 0.578125 -0.414062 0.453125 -0.625 C 0.328125 -0.84375 0.265625 -1.097656 0.265625 -1.390625 C 0.265625 -1.773438 0.347656 -2.117188 0.515625 -2.421875 C 0.679688 -2.722656 0.90625 -2.957031 1.1875 -3.125 C 1.476562 -3.300781 1.804688 -3.390625 2.171875 -3.390625 C 2.484375 -3.390625 2.75 -3.328125 2.96875 -3.203125 C 3.1875 -3.078125 3.34375 -2.894531 3.4375 -2.65625 L 3.578125 -3.359375 Z M 1.828125 -0.375 C 2.109375 -0.375 2.359375 -0.4375 2.578125 -0.5625 C 2.796875 -0.695312 2.96875 -0.882812 3.09375 -1.125 C 3.21875 -1.375 3.28125 -1.644531 3.28125 -1.9375 C 3.28125 -2.269531 3.179688 -2.523438 2.984375 -2.703125 C 2.796875 -2.890625 2.523438 -2.984375 2.171875 -2.984375 C 1.898438 -2.984375 1.648438 -2.914062 1.421875 -2.78125 C 1.203125 -2.644531 1.03125 -2.457031 0.90625 -2.21875 C 0.78125 -1.976562 0.71875 -1.707031 0.71875 -1.40625 C 0.71875 -1.082031 0.8125 -0.828125 1 -0.640625 C 1.195312 -0.460938 1.472656 -0.375 1.828125 -0.375 Z M 1.828125 -0.375 "/></g></g></g><g fill="#000000" fill-opacity="1"><g transform="translate(219.101374, 55.58635)"><g><path d="M 1.28125 -2.75 C 1.4375 -2.96875 1.625 -3.128906 1.84375 -3.234375 C 2.070312 -3.335938 2.347656 -3.390625 2.671875 -3.390625 L 2.578125 -2.953125 L 2.453125 -2.953125 C 2.085938 -2.953125 1.789062 -2.847656 1.5625 -2.640625 C 1.332031 -2.429688 1.175781 -2.117188 1.09375 -1.703125 L 0.75 0 L 0.296875 0 L 0.96875 -3.359375 L 1.40625 -3.359375 Z M 1.28125 -2.75 "/></g></g></g><g fill="#000000" fill-opacity="1"><g transform="translate(221.662943, 55.58635)"><g><path d="M 4.03125 -3.359375 L 3.375 0 L 2.9375 0 L 3.046875 -0.53125 C 2.878906 -0.351562 2.6875 -0.210938 2.46875 -0.109375 C 2.25 -0.015625 2.003906 0.03125 1.734375 0.03125 C 1.441406 0.03125 1.1875 -0.0234375 0.96875 -0.140625 C 0.75 -0.253906 0.578125 -0.414062 0.453125 -0.625 C 0.328125 -0.84375 0.265625 -1.097656 0.265625 -1.390625 C 0.265625 -1.773438 0.347656 -2.117188 0.515625 -2.421875 C 0.679688 -2.722656 0.90625 -2.957031 1.1875 -3.125 C 1.476562 -3.300781 1.804688 -3.390625 2.171875 -3.390625 C 2.484375 -3.390625 2.75 -3.328125 2.96875 -3.203125 C 3.1875 -3.078125 3.34375 -2.894531 3.4375 -2.65625 L 3.578125 -3.359375 Z M 1.828125 -0.375 C 2.109375 -0.375 2.359375 -0.4375 2.578125 -0.5625 C 2.796875 -0.695312 2.96875 -0.882812 3.09375 -1.125 C 3.21875 -1.375 3.28125 -1.644531 3.28125 -1.9375 C 3.28125 -2.269531 3.179688 -2.523438 2.984375 -2.703125 C 2.796875 -2.890625 2.523438 -2.984375 2.171875 -2.984375 C 1.898438 -2.984375 1.648438 -2.914062 1.421875 -2.78125 C 1.203125 -2.644531 1.03125 -2.457031 0.90625 -2.21875 C 0.78125 -1.976562 0.71875 -1.707031 0.71875 -1.40625 C 0.71875 -1.082031 0.8125 -0.828125 1 -0.640625 C 1.195312 -0.460938 1.472656 -0.375 1.828125 -0.375 Z M 1.828125 -0.375 "/></g></g></g><g fill="#000000" fill-opacity="1"><g transform="translate(225.993979, 55.58635)"><g><path d="M 2.28125 -4.390625 C 2.082031 -4.390625 1.925781 -4.335938 1.8125 -4.234375 C 1.695312 -4.128906 1.613281 -3.960938 1.5625 -3.734375 L 1.484375 -3.359375 L 2.515625 -3.359375 L 2.4375 -2.984375 L 1.421875 -2.984375 L 0.828125 0 L 0.375 0 L 0.96875 -2.984375 L 0.375 -2.984375 L 0.4375 -3.359375 L 1.046875 -3.359375 L 1.125 -3.78125 C 1.195312 -4.101562 1.328125 -4.347656 1.515625 -4.515625 C 1.710938 -4.691406 1.96875 -4.78125 2.28125 -4.78125 C 2.414062 -4.78125 2.539062 -4.757812 2.65625 -4.71875 C 2.78125 -4.675781 2.878906 -4.625 2.953125 -4.5625 L 2.765625 -4.21875 C 2.640625 -4.332031 2.476562 -4.390625 2.28125 -4.390625 Z M 2.28125 -4.390625 "/></g></g></g><g fill="#000000" fill-opacity="1"><g transform="translate(228.159498, 55.58635)"><g/></g></g><g fill="#000000" fill-opacity="1"><g transform="translate(229.833144, 55.58635)"><g><path d="M 1.28125 0.03125 C 1.007812 0.03125 0.75 -0.00390625 0.5 -0.078125 C 0.257812 -0.160156 0.0703125 -0.257812 -0.0625 -0.375 L 0.15625 -0.734375 C 0.28125 -0.617188 0.445312 -0.523438 0.65625 -0.453125 C 0.875 -0.390625 1.097656 -0.359375 1.328125 -0.359375 C 1.640625 -0.359375 1.878906 -0.410156 2.046875 -0.515625 C 2.222656 -0.617188 2.3125 -0.769531 2.3125 -0.96875 C 2.3125 -1.070312 2.273438 -1.15625 2.203125 -1.21875 C 2.140625 -1.28125 2.054688 -1.328125 1.953125 -1.359375 C 1.847656 -1.398438 1.703125 -1.441406 1.515625 -1.484375 C 1.273438 -1.535156 1.082031 -1.585938 0.9375 -1.640625 C 0.789062 -1.691406 0.664062 -1.769531 0.5625 -1.875 C 0.46875 -1.988281 0.421875 -2.144531 0.421875 -2.34375 C 0.421875 -2.65625 0.550781 -2.90625 0.8125 -3.09375 C 1.070312 -3.289062 1.425781 -3.390625 1.875 -3.390625 C 2.09375 -3.390625 2.300781 -3.359375 2.5 -3.296875 C 2.707031 -3.242188 2.878906 -3.171875 3.015625 -3.078125 L 2.8125 -2.703125 C 2.6875 -2.796875 2.535156 -2.867188 2.359375 -2.921875 C 2.191406 -2.972656 2.015625 -3 1.828125 -3 C 1.523438 -3 1.285156 -2.941406 1.109375 -2.828125 C 0.941406 -2.722656 0.859375 -2.578125 0.859375 -2.390625 C 0.859375 -2.273438 0.894531 -2.179688 0.96875 -2.109375 C 1.039062 -2.046875 1.128906 -1.992188 1.234375 -1.953125 C 1.347656 -1.921875 1.5 -1.890625 1.6875 -1.859375 C 1.914062 -1.804688 2.097656 -1.753906 2.234375 -1.703125 C 2.378906 -1.648438 2.503906 -1.566406 2.609375 -1.453125 C 2.710938 -1.347656 2.765625 -1.203125 2.765625 -1.015625 C 2.765625 -0.691406 2.628906 -0.4375 2.359375 -0.25 C 2.085938 -0.0625 1.726562 0.03125 1.28125 0.03125 Z M 1.28125 0.03125 "/></g></g></g><g fill="#000000" fill-opacity="1"><g transform="translate(232.956855, 55.58635)"><g><path d="M 1.796875 0.03125 C 1.484375 0.03125 1.210938 -0.0234375 0.984375 -0.140625 C 0.753906 -0.253906 0.578125 -0.421875 0.453125 -0.640625 C 0.328125 -0.859375 0.265625 -1.109375 0.265625 -1.390625 C 0.265625 -1.773438 0.347656 -2.117188 0.515625 -2.421875 C 0.679688 -2.722656 0.910156 -2.957031 1.203125 -3.125 C 1.503906 -3.300781 1.84375 -3.390625 2.21875 -3.390625 C 2.6875 -3.390625 3.054688 -3.257812 3.328125 -3 C 3.597656 -2.75 3.734375 -2.40625 3.734375 -1.96875 C 3.734375 -1.59375 3.648438 -1.25 3.484375 -0.9375 C 3.316406 -0.632812 3.085938 -0.394531 2.796875 -0.21875 C 2.503906 -0.0507812 2.171875 0.03125 1.796875 0.03125 Z M 1.828125 -0.375 C 2.109375 -0.375 2.359375 -0.4375 2.578125 -0.5625 C 2.796875 -0.695312 2.96875 -0.882812 3.09375 -1.125 C 3.21875 -1.375 3.28125 -1.644531 3.28125 -1.9375 C 3.28125 -2.269531 3.179688 -2.523438 2.984375 -2.703125 C 2.796875 -2.890625 2.523438 -2.984375 2.171875 -2.984375 C 1.898438 -2.984375 1.648438 -2.914062 1.421875 -2.78125 C 1.203125 -2.644531 1.03125 -2.457031 0.90625 -2.21875 C 0.78125 -1.976562 0.71875 -1.707031 0.71875 -1.40625 C 0.71875 -1.082031 0.8125 -0.828125 1 -0.640625 C 1.195312 -0.460938 1.472656 -0.375 1.828125 -0.375 Z M 1.921875 -4.03125 C 1.847656 -4.03125 1.785156 -4.050781 1.734375 -4.09375 C 1.679688 -4.144531 1.65625 -4.203125 1.65625 -4.265625 C 1.65625 -4.359375 1.679688 -4.429688 1.734375 -4.484375 C 1.796875 -4.546875 1.867188 -4.578125 1.953125 -4.578125 C 2.023438 -4.578125 2.085938 -4.550781 2.140625 -4.5 C 2.191406 -4.457031 2.21875 -4.394531 2.21875 -4.3125 C 2.21875 -4.226562 2.1875 -4.160156 2.125 -4.109375 C 2.070312 -4.054688 2.003906 -4.03125 1.921875 -4.03125 Z M 3.0625 -4.03125 C 2.988281 -4.03125 2.925781 -4.050781 2.875 -4.09375 C 2.832031 -4.144531 2.8125 -4.203125 2.8125 -4.265625 C 2.8125 -4.359375 2.835938 -4.429688 2.890625 -4.484375 C 2.941406 -4.546875 3.007812 -4.578125 3.09375 -4.578125 C 3.164062 -4.578125 3.226562 -4.550781 3.28125 -4.5 C 3.332031 -4.457031 3.359375 -4.394531 3.359375 -4.3125 C 3.359375 -4.226562 3.328125 -4.160156 3.265625 -4.109375 C 3.210938 -4.054688 3.144531 -4.03125 3.0625 -4.03125 Z M 3.0625 -4.03125 "/></g></g></g><g fill="#000000" fill-opacity="1"><g transform="translate(236.962104, 55.58635)"><g><path d="M 3.234375 -3.0625 L 0.609375 -0.375 L 2.734375 -0.375 L 2.671875 0 L -0.0625 0 L -0.015625 -0.296875 L 2.609375 -2.984375 L 0.5625 -2.984375 L 0.640625 -3.359375 L 3.296875 -3.359375 Z M 3.234375 -3.0625 "/></g></g></g><g fill="#000000" fill-opacity="1"><g transform="translate(240.226349, 55.58635)"><g><path d="M 1.25 -4.734375 L 1.703125 -4.734375 L 0.75 0 L 0.296875 0 Z M 1.25 -4.734375 "/></g></g></g><g fill="#000000" fill-opacity="1"><g transform="translate(241.944709, 55.58635)"><g><path d="M 4 -3.359375 L 3.328125 0 L 2.890625 0 L 3 -0.53125 C 2.6875 -0.15625 2.253906 0.03125 1.703125 0.03125 C 1.328125 0.03125 1.035156 -0.0625 0.828125 -0.25 C 0.617188 -0.445312 0.515625 -0.71875 0.515625 -1.0625 C 0.515625 -1.1875 0.523438 -1.3125 0.546875 -1.4375 L 0.9375 -3.359375 L 1.390625 -3.359375 L 1 -1.4375 C 0.976562 -1.320312 0.96875 -1.222656 0.96875 -1.140625 C 0.96875 -0.890625 1.039062 -0.695312 1.1875 -0.5625 C 1.332031 -0.4375 1.546875 -0.375 1.828125 -0.375 C 2.179688 -0.375 2.472656 -0.472656 2.703125 -0.671875 C 2.941406 -0.878906 3.101562 -1.171875 3.1875 -1.546875 L 3.546875 -3.359375 Z M 2.0625 -4.03125 C 1.988281 -4.03125 1.925781 -4.050781 1.875 -4.09375 C 1.820312 -4.144531 1.796875 -4.203125 1.796875 -4.265625 C 1.796875 -4.359375 1.820312 -4.429688 1.875 -4.484375 C 1.9375 -4.546875 2.007812 -4.578125 2.09375 -4.578125 C 2.164062 -4.578125 2.226562 -4.550781 2.28125 -4.5 C 2.332031 -4.457031 2.359375 -4.394531 2.359375 -4.3125 C 2.359375 -4.226562 2.328125 -4.160156 2.265625 -4.109375 C 2.210938 -4.054688 2.144531 -4.03125 2.0625 -4.03125 Z M 3.203125 -4.03125 C 3.128906 -4.03125 3.066406 -4.050781 3.015625 -4.09375 C 2.972656 -4.144531 2.953125 -4.203125 2.953125 -4.265625 C 2.953125 -4.359375 2.976562 -4.429688 3.03125 -4.484375 C 3.082031 -4.546875 3.148438 -4.578125 3.234375 -4.578125 C 3.304688 -4.578125 3.367188 -4.550781 3.421875 -4.5 C 3.472656 -4.457031 3.5 -4.394531 3.5 -4.3125 C 3.5 -4.226562 3.46875 -4.160156 3.40625 -4.109375 C 3.351562 -4.054688 3.285156 -4.03125 3.203125 -4.03125 Z M 3.203125 -4.03125 "/></g></g></g><g fill="#000000" fill-opacity="1"><g transform="translate(246.243805, 55.58635)"><g><path d="M 2.25 -1.96875 L 3.453125 0 L 2.921875 0 L 1.890625 -1.703125 L 0.953125 -0.96875 L 0.75 0 L 0.296875 0 L 1.25 -4.734375 L 1.703125 -4.734375 L 1.0625 -1.546875 L 3.375 -3.359375 L 4.015625 -3.359375 Z M 2.25 -1.96875 "/></g></g></g><g fill="#000000" fill-opacity="1"><g transform="translate(250.0127, 55.58635)"><g><path d="M 0.390625 0.03125 C 0.296875 0.03125 0.21875 0 0.15625 -0.0625 C 0.09375 -0.125 0.0625 -0.203125 0.0625 -0.296875 C 0.0625 -0.398438 0.0976562 -0.488281 0.171875 -0.5625 C 0.242188 -0.632812 0.328125 -0.671875 0.421875 -0.671875 C 0.515625 -0.671875 0.59375 -0.632812 0.65625 -0.5625 C 0.71875 -0.5 0.75 -0.421875 0.75 -0.328125 C 0.75 -0.222656 0.710938 -0.132812 0.640625 -0.0625 C 0.566406 0 0.484375 0.03125 0.390625 0.03125 Z M 0.390625 0.03125 "/></g></g></g></svg>