<svg xmlns="http://www.w3.org/2000/svg" xmlns:xlink="http://www.w3.org/1999/xlink" width="302" zoomAndPan="magnify" viewBox="0 0 226.5 84.749997" height="113" preserveAspectRatio="xMidYMid meet" version="1.0"><defs><g/></defs><g fill="#5ce1e6" fill-opacity="1"><g transform="translate(10.534535, 55.854916)"><g><path d="M 12.078125 -8.40625 L 9.09375 -5.46875 L 9.09375 0 L 2.875 0 L 2.875 -29.59375 L 9.09375 -29.59375 L 9.09375 -12.84375 L 18.1875 -21.453125 L 25.59375 -21.453125 L 16.671875 -12.359375 L 26.390625 0 L 18.859375 0 Z M 12.078125 -8.40625 "/></g></g></g><g fill="#5ce1e6" fill-opacity="1"><g transform="translate(36.854271, 55.854916)"><g><path d="M 13.078125 0.3125 C 10.816406 0.3125 8.789062 -0.15625 7 -1.09375 C 5.207031 -2.039062 3.804688 -3.347656 2.796875 -5.015625 C 1.785156 -6.691406 1.28125 -8.59375 1.28125 -10.71875 C 1.28125 -12.851562 1.785156 -14.753906 2.796875 -16.421875 C 3.804688 -18.097656 5.207031 -19.40625 7 -20.34375 C 8.789062 -21.289062 10.816406 -21.765625 13.078125 -21.765625 C 15.335938 -21.765625 17.359375 -21.289062 19.140625 -20.34375 C 20.921875 -19.40625 22.316406 -18.097656 23.328125 -16.421875 C 24.335938 -14.753906 24.84375 -12.851562 24.84375 -10.71875 C 24.84375 -8.59375 24.335938 -6.691406 23.328125 -5.015625 C 22.316406 -3.347656 20.921875 -2.039062 19.140625 -1.09375 C 17.359375 -0.15625 15.335938 0.3125 13.078125 0.3125 Z M 13.078125 -4.78125 C 14.671875 -4.78125 15.976562 -5.316406 17 -6.390625 C 18.03125 -7.472656 18.546875 -8.914062 18.546875 -10.71875 C 18.546875 -12.53125 18.03125 -13.972656 17 -15.046875 C 15.976562 -16.128906 14.671875 -16.671875 13.078125 -16.671875 C 11.484375 -16.671875 10.164062 -16.128906 9.125 -15.046875 C 8.09375 -13.972656 7.578125 -12.53125 7.578125 -10.71875 C 7.578125 -8.914062 8.09375 -7.472656 9.125 -6.390625 C 10.164062 -5.316406 11.484375 -4.78125 13.078125 -4.78125 Z M 8.984375 -24.40625 C 8.179688 -24.40625 7.515625 -24.660156 6.984375 -25.171875 C 6.453125 -25.691406 6.1875 -26.351562 6.1875 -27.15625 C 6.1875 -27.945312 6.453125 -28.601562 6.984375 -29.125 C 7.515625 -29.644531 8.179688 -29.90625 8.984375 -29.90625 C 9.773438 -29.90625 10.429688 -29.644531 10.953125 -29.125 C 11.472656 -28.601562 11.734375 -27.945312 11.734375 -27.15625 C 11.734375 -26.351562 11.472656 -25.691406 10.953125 -25.171875 C 10.429688 -24.660156 9.773438 -24.40625 8.984375 -24.40625 Z M 17.03125 -24.40625 C 16.238281 -24.40625 15.582031 -24.660156 15.0625 -25.171875 C 14.539062 -25.691406 14.28125 -26.351562 14.28125 -27.15625 C 14.28125 -27.945312 14.539062 -28.601562 15.0625 -29.125 C 15.582031 -29.644531 16.238281 -29.90625 17.03125 -29.90625 C 17.832031 -29.90625 18.5 -29.644531 19.03125 -29.125 C 19.5625 -28.601562 19.828125 -27.945312 19.828125 -27.15625 C 19.828125 -26.351562 19.5625 -25.691406 19.03125 -25.171875 C 18.5 -24.660156 17.832031 -24.40625 17.03125 -24.40625 Z M 17.03125 -24.40625 "/></g></g></g><g fill="#5ce1e6" fill-opacity="1"><g transform="translate(62.974621, 55.854916)"><g><path d="M 12.078125 -8.40625 L 9.09375 -5.46875 L 9.09375 0 L 2.875 0 L 2.875 -29.59375 L 9.09375 -29.59375 L 9.09375 -12.84375 L 18.1875 -21.453125 L 25.59375 -21.453125 L 16.671875 -12.359375 L 26.390625 0 L 18.859375 0 Z M 12.078125 -8.40625 "/></g></g></g><g fill="#000000" fill-opacity="1"><g transform="translate(89.298282, 55.854916)"><g><path d="M 9.5625 0.203125 C 7.863281 0.203125 6.238281 -0.0390625 4.6875 -0.53125 C 3.132812 -1.03125 1.914062 -1.648438 1.03125 -2.390625 L 2.3125 -4.625 C 3.1875 -3.9375 4.285156 -3.367188 5.609375 -2.921875 C 6.941406 -2.484375 8.328125 -2.265625 9.765625 -2.265625 C 11.679688 -2.265625 13.097656 -2.5625 14.015625 -3.15625 C 14.929688 -3.757812 15.390625 -4.609375 15.390625 -5.703125 C 15.390625 -6.472656 15.132812 -7.078125 14.625 -7.515625 C 14.125 -7.953125 13.488281 -8.285156 12.71875 -8.515625 C 11.945312 -8.742188 10.925781 -8.960938 9.65625 -9.171875 C 7.945312 -9.492188 6.570312 -9.816406 5.53125 -10.140625 C 4.5 -10.472656 3.617188 -11.039062 2.890625 -11.84375 C 2.160156 -12.644531 1.796875 -13.75 1.796875 -15.15625 C 1.796875 -16.90625 2.523438 -18.335938 3.984375 -19.453125 C 5.453125 -20.578125 7.488281 -21.140625 10.09375 -21.140625 C 11.445312 -21.140625 12.800781 -20.957031 14.15625 -20.59375 C 15.507812 -20.238281 16.625 -19.769531 17.5 -19.1875 L 16.265625 -16.90625 C 14.535156 -18.101562 12.476562 -18.703125 10.09375 -18.703125 C 8.28125 -18.703125 6.914062 -18.378906 6 -17.734375 C 5.082031 -17.097656 4.625 -16.265625 4.625 -15.234375 C 4.625 -14.429688 4.882812 -13.789062 5.40625 -13.3125 C 5.925781 -12.832031 6.570312 -12.476562 7.34375 -12.25 C 8.113281 -12.03125 9.175781 -11.800781 10.53125 -11.5625 C 12.207031 -11.238281 13.546875 -10.914062 14.546875 -10.59375 C 15.554688 -10.28125 16.421875 -9.738281 17.140625 -8.96875 C 17.859375 -8.195312 18.21875 -7.132812 18.21875 -5.78125 C 18.21875 -3.945312 17.453125 -2.488281 15.921875 -1.40625 C 14.398438 -0.332031 12.28125 0.203125 9.5625 0.203125 Z M 9.5625 0.203125 "/></g></g></g><g fill="#000000" fill-opacity="1"><g transform="translate(108.798812, 55.854916)"><g><path d="M 12.515625 0.203125 C 10.492188 0.203125 8.671875 -0.253906 7.046875 -1.171875 C 5.429688 -2.085938 4.15625 -3.359375 3.21875 -4.984375 C 2.289062 -6.609375 1.828125 -8.441406 1.828125 -10.484375 C 1.828125 -12.535156 2.289062 -14.367188 3.21875 -15.984375 C 4.15625 -17.609375 5.429688 -18.875 7.046875 -19.78125 C 8.671875 -20.6875 10.492188 -21.140625 12.515625 -21.140625 C 14.535156 -21.140625 16.359375 -20.6875 17.984375 -19.78125 C 19.609375 -18.875 20.878906 -17.609375 21.796875 -15.984375 C 22.710938 -14.367188 23.171875 -12.535156 23.171875 -10.484375 C 23.171875 -8.441406 22.710938 -6.609375 21.796875 -4.984375 C 20.878906 -3.359375 19.609375 -2.085938 17.984375 -1.171875 C 16.359375 -0.253906 14.535156 0.203125 12.515625 0.203125 Z M 12.515625 -2.3125 C 14.003906 -2.3125 15.335938 -2.648438 16.515625 -3.328125 C 17.703125 -4.003906 18.628906 -4.96875 19.296875 -6.21875 C 19.960938 -7.46875 20.296875 -8.890625 20.296875 -10.484375 C 20.296875 -12.078125 19.960938 -13.5 19.296875 -14.75 C 18.628906 -16 17.703125 -16.960938 16.515625 -17.640625 C 15.335938 -18.316406 14.003906 -18.65625 12.515625 -18.65625 C 11.023438 -18.65625 9.6875 -18.316406 8.5 -17.640625 C 7.320312 -16.960938 6.394531 -16 5.71875 -14.75 C 5.039062 -13.5 4.703125 -12.078125 4.703125 -10.484375 C 4.703125 -8.890625 5.039062 -7.46875 5.71875 -6.21875 C 6.394531 -4.96875 7.320312 -4.003906 8.5 -3.328125 C 9.6875 -2.648438 11.023438 -2.3125 12.515625 -2.3125 Z M 8.921875 -25.171875 C 8.441406 -25.171875 8.035156 -25.328125 7.703125 -25.640625 C 7.378906 -25.960938 7.21875 -26.375 7.21875 -26.875 C 7.21875 -27.351562 7.378906 -27.757812 7.703125 -28.09375 C 8.035156 -28.425781 8.441406 -28.59375 8.921875 -28.59375 C 9.378906 -28.59375 9.78125 -28.425781 10.125 -28.09375 C 10.46875 -27.757812 10.640625 -27.351562 10.640625 -26.875 C 10.640625 -26.40625 10.472656 -26.003906 10.140625 -25.671875 C 9.804688 -25.335938 9.398438 -25.171875 8.921875 -25.171875 Z M 16.03125 -25.171875 C 15.550781 -25.171875 15.144531 -25.335938 14.8125 -25.671875 C 14.476562 -26.003906 14.3125 -26.40625 14.3125 -26.875 C 14.3125 -27.351562 14.484375 -27.757812 14.828125 -28.09375 C 15.171875 -28.425781 15.570312 -28.59375 16.03125 -28.59375 C 16.5 -28.59375 16.898438 -28.425781 17.234375 -28.09375 C 17.566406 -27.757812 17.734375 -27.351562 17.734375 -26.875 C 17.734375 -26.375 17.566406 -25.960938 17.234375 -25.640625 C 16.898438 -25.328125 16.5 -25.171875 16.03125 -25.171875 Z M 16.03125 -25.171875 "/></g></g></g><g fill="#000000" fill-opacity="1"><g transform="translate(133.80256, 55.854916)"><g><path d="M 18.734375 -2.359375 L 18.734375 0 L 1.671875 0 L 1.671875 -1.875 L 14.875 -18.578125 L 1.90625 -18.578125 L 1.90625 -20.96875 L 18.5 -20.96875 L 18.5 -19.09375 L 5.296875 -2.359375 Z M 18.734375 -2.359375 "/></g></g></g><g fill="#000000" fill-opacity="1"><g transform="translate(154.180416, 55.854916)"><g><path d="M 3.953125 -29.59375 L 6.78125 -29.59375 L 6.78125 0 L 3.953125 0 Z M 3.953125 -29.59375 "/></g></g></g><g fill="#000000" fill-opacity="1"><g transform="translate(164.907706, 55.854916)"><g><path d="M 22.84375 -20.96875 L 22.84375 0 L 20.140625 0 L 20.140625 -3.828125 C 19.390625 -2.546875 18.363281 -1.550781 17.0625 -0.84375 C 15.757812 -0.144531 14.269531 0.203125 12.59375 0.203125 C 9.863281 0.203125 7.707031 -0.5625 6.125 -2.09375 C 4.539062 -3.625 3.75 -5.863281 3.75 -8.8125 L 3.75 -20.96875 L 6.578125 -20.96875 L 6.578125 -9.09375 C 6.578125 -6.882812 7.117188 -5.207031 8.203125 -4.0625 C 9.296875 -2.925781 10.851562 -2.359375 12.875 -2.359375 C 15.082031 -2.359375 16.820312 -3.023438 18.09375 -4.359375 C 19.375 -5.703125 20.015625 -7.570312 20.015625 -9.96875 L 20.015625 -20.96875 Z M 9.765625 -25.171875 C 9.285156 -25.171875 8.878906 -25.328125 8.546875 -25.640625 C 8.222656 -25.960938 8.0625 -26.375 8.0625 -26.875 C 8.0625 -27.351562 8.222656 -27.757812 8.546875 -28.09375 C 8.878906 -28.425781 9.285156 -28.59375 9.765625 -28.59375 C 10.222656 -28.59375 10.625 -28.425781 10.96875 -28.09375 C 11.3125 -27.757812 11.484375 -27.351562 11.484375 -26.875 C 11.484375 -26.40625 11.316406 -26.003906 10.984375 -25.671875 C 10.648438 -25.335938 10.242188 -25.171875 9.765625 -25.171875 Z M 16.875 -25.171875 C 16.394531 -25.171875 15.988281 -25.335938 15.65625 -25.671875 C 15.320312 -26.003906 15.15625 -26.40625 15.15625 -26.875 C 15.15625 -27.351562 15.328125 -27.757812 15.671875 -28.09375 C 16.015625 -28.425781 16.414062 -28.59375 16.875 -28.59375 C 17.34375 -28.59375 17.742188 -28.425781 18.078125 -28.09375 C 18.410156 -27.757812 18.578125 -27.351562 18.578125 -26.875 C 18.578125 -26.375 18.410156 -25.960938 18.078125 -25.640625 C 17.742188 -25.328125 17.34375 -25.171875 16.875 -25.171875 Z M 16.875 -25.171875 "/></g></g></g><g fill="#000000" fill-opacity="1"><g transform="translate(191.745863, 55.854916)"><g><path d="M 11.71875 -10.53125 L 6.78125 -5.984375 L 6.78125 0 L 3.953125 0 L 3.953125 -29.59375 L 6.78125 -29.59375 L 6.78125 -9.53125 L 19.296875 -20.96875 L 22.8125 -20.96875 L 13.84375 -12.40625 L 23.640625 0 L 20.171875 0 Z M 11.71875 -10.53125 "/></g></g></g></svg>